<svg xmlns="http://www.w3.org/2000/svg" viewBox="0 0 120.39 96.47"><defs><style>.cls-1{fill:#fff;}.cls-2{fill:none;stroke:#fff;stroke-miterlimit:10;stroke-width:0.5px;}.cls-3{fill:#104587;}.cls-4{fill:#dc4538;}.cls-5{fill:#05768b;}</style></defs><g id="Layer_2" data-name="Layer 2"><g id="Layer_1-2" data-name="Layer 1"><path class="cls-1" d="M117.5,51a5.74,5.74,0,0,1,.77,0,1.57,1.57,0,0,1,.9.2.54.54,0,0,1,.25.46.67.67,0,0,1-.59.61h0a.66.66,0,0,1,.46.49,3.2,3.2,0,0,0,.24.66h-.42a2.35,2.35,0,0,1-.2-.57.56.56,0,0,0-.63-.47h-.38v1h-.4Zm.44,1.1h.45c.47,0,.77-.18.77-.46s-.32-.44-.79-.45a3,3,0,0,0-.43,0Z"/><ellipse class="cls-2" cx="118.42" cy="52.14" rx="1.72" ry="1.74"/><path class="cls-3" d="M8.39,85.23c-1.38-.2-1.7-5.14-2-9.94A74.34,74.34,0,0,1,6.3,63.12c0-.24.24-2.49.7-5a78.74,78.74,0,0,1,7.54-21.52h0C17,32.46,22.11,23.81,30.2,16.77c5.37-4.68,10.15-6.94,16.94-10.19A127.09,127.09,0,0,1,63.94,0,66.21,66.21,0,0,0,44.25,3.92a68.88,68.88,0,0,0-32.47,25A67.08,67.08,0,0,0,.13,62.41a66.23,66.23,0,0,0,7,34.06Z"/><path class="cls-3" d="M26.6,78.21c-8,5.82-13.21,7-14.24,6.93-1.6,0-.25-5.76.94-10.76a73.79,73.79,0,0,1,3.79-12.45c.1-.24,1.07-2.48,2.38-4.91A84.68,84.68,0,0,1,34.72,37.24h0c4-3.5,12.5-10.83,23.74-15.64,7.46-3.19,13.5-4.1,22.08-5.41a157.29,157.29,0,0,1,20.77-1.78,83.7,83.7,0,0,0-23.14-1.8A84.61,84.61,0,0,0,57,16.79,80.76,80.76,0,0,0,34.09,28.62,71.08,71.08,0,0,0,10.47,59.38,65.16,65.16,0,0,0,7.4,96.26Z"/><path class="cls-3" d="M87,57.19l-13.57,0s-5.3,1.24-5.48,3.45c-.2,2.48,0,8.74,0,8.74s1.39,4.21,4.25,4.43,15.74,0,15.74,0V69.47l-13.7.08-1.11-.81L73,67.28l15,0V63.4l-15,.16s.16-2.19,1.59-2.19l13.38,0v-4.2Z"/><rect class="cls-4" x="32.58" y="57.24" width="5.13" height="16.64"/><path class="cls-5" d="M63.27,67.13l-2.41-2s1.64-1.32,1.7-1.92-.06-3.4-.06-3.4-1-2.55-2.24-2.55h-18v4.19H56.48s1.2,0,1.2.93-.22,1.15-.82,1.15l-14.57.16v10.2H61.46s1.76-1.31,1.81-2.14S63.27,67.13,63.27,67.13Zm-6.21,2.71H46.36V67.75l10.36.07s.74,0,.82,1S57.06,69.84,57.06,69.84Z"/><polygon class="cls-4" points="103.3 63.23 98.43 57.19 92.17 57.19 99.14 65.52 92.17 73.9 98.46 73.9 103.3 67.69 103.3 63.23"/><polygon class="cls-3" points="106.57 63.23 111.43 57.19 117.7 57.19 110.72 65.52 117.7 73.9 111.41 73.9 106.57 67.69 106.57 63.23"/></g></g></svg>